
<svg xmlns="http://www.w3.org/2000/svg" version="1.1" xmlns:xlink="http://www.w3.org/1999/xlink" preserveAspectRatio="none" x="0px" y="0px" width="14px" height="14px" viewBox="0 0 14 14">
<defs>
<g id="Layer0_0_FILL">
<path fill="#8DA5F3" stroke="none" d="
M 14 10
L 14 4
Q 14 2.35 12.85 1.2 11.65 0 10 0
L 4 0
Q 2.3 0 1.15 1.2 0 2.35 0 4
L 0 10
Q 0 11.7 1.15 12.85 2.3 14 4 14
L 10 14
Q 11.65 14 12.85 12.85 14 11.7 14 10
M 4.15 10.9
Q 4.45 10.6 4.85 10.6 5.25 10.6 5.55 10.9 6.15 11.45 7 11.45 7.8 11.45 8.4 10.9 8.7 10.6 9.1 10.6 9.5 10.6 9.8 10.9 10.1 11.2 10.1 11.6 10.1 12 9.8 12.3 8.65 13.45 7 13.45 5.3 13.45 4.15 12.3 3.85 12 3.85 11.6 3.85 11.15 4.15 10.9
M 12 7.65
L 12 9.2
Q 12 10.2 11 10.2 10 10.2 10 9.2
L 10 7.65
Q 10 6.65 11 6.65 11.4 6.65 11.7 6.95 12 7.25 12 7.65
M 4 7.65
L 4 9.2
Q 4 9.65 3.7 9.95 3.4 10.2 3 10.2 2 10.2 2 9.2
L 2 7.65
Q 2 6.65 3 6.65 3.4 6.65 3.7 6.95 4 7.25 4 7.65
M 10.2 2.15
Q 10.4 2.2 10.6 2.4 10.8 2.55 10.85 2.8 10.95 3.05 10.95 3.5
L 10.95 5.65
Q 10.95 5.7 10.9 5.7
L 10 5.7 10 3.65
Q 10 3.4 9.9 3.25 9.85 3.1 9.7 3 9.6 2.95 9.4 2.95 9.2 2.95 9.1 3 8.95 3.05 8.8 3.15
L 8.8 5.65
Q 8.8 5.7 8.75 5.7
L 7.85 5.7 7.85 2.95
Q 7.85 2.8 7.85 2.7
L 7.8 2.4
Q 7.8 2.25 7.8 2.2
L 7.8 2.15 8.65 2.15
Q 8.7 2.15 8.7 2.2 8.7 2.25 8.7 2.3 8.75 2.35 8.75 2.45 8.95 2.25 9.2 2.15 9.5 2.1 9.75 2.1 10 2.1 10.2 2.15
M 5.65 1
Q 5.7 1 5.7 1.05
L 7.35 5.6
Q 7.35 5.7 7.3 5.7
L 6.3 5.7 6.3 5.65 5.9 4.6 4.25 4.6 3.9 5.65 3.9 5.7 2.95 5.7
Q 2.9 5.7 2.9 5.6
L 4.4 1.35
Q 4.45 1.2 4.45 1.05
L 4.45 1 5.65 1
M 5.4 3
L 5.3 2.6
Q 5.25 2.45 5.15 2.2 5.1 1.95 5.05 1.85 5 2.2 4.9 2.4 4.75 2.9 4.7 3.05 4.6 3.4 4.5 3.7
L 5.65 3.7
Q 5.6 3.55 5.55 3.35 5.45 3.1 5.4 3 Z"/>
</g>
</defs>

<g transform="matrix( 1, 0, 0, 1, 0,0) ">
<use xlink:href="#Layer0_0_FILL"/>
</g>
</svg>
